<svg width="194" height="35" viewBox="0 0 194 35" fill="none" xmlns="http://www.w3.org/2000/svg">
<path d="M30.04 1.36L27.36 12.92H20.64L15.64 34.6H2.16L7.16 12.92H0.44L3.12 1.36H30.04ZM49.3006 1.44H62.0206L54.3406 34.6H41.6206L44.1806 23.6H40.4206L37.8606 34.6H25.1406L32.8206 1.44H45.5406L43.0206 12.28H46.7806L49.3006 1.44ZM88.6778 11.84H75.2378L74.7178 14.16H87.7978L86.0778 21.76H72.9578L72.3978 24.24H85.9578L83.5578 34.64H57.5578L65.2378 1.44H91.0778L88.6778 11.84ZM131.568 12.96H119.168L118.448 16.08H130.568L128.408 25.52H116.288L114.168 34.6H100.687L108.368 1.44H134.248L131.568 12.96ZM160.398 0.479999L162.918 4.24L160.158 16.28L151.598 23.64L151.518 24.12H159.398L156.918 34.8H129.477L131.238 27.12L146.518 13.96L146.878 12.52H134.998L137.758 0.479999H160.398ZM191.256 11.84H177.816L177.296 14.16H190.376L188.656 21.76H175.536L174.976 24.24H188.536L186.136 34.64H160.136L167.816 1.44H193.656L191.256 11.84Z" fill="black"/>
</svg>
