<svg width="237" height="57" viewBox="0 0 237 57" fill="none" xmlns="http://www.w3.org/2000/svg">
<path d="M56.6 19H42.68V21.4H56.06V34.06H42.68V36.34H56.06V49H42.68V56.86H24.68V30.58H21.86V7.84L26.54 1.18H43.64V4H56.6V19ZM0.8 15.1L7.4 1.6H20.06V56.74H4.1V35.68H0.8V15.1ZM64.16 1.78H114.62V26.26H64.16V1.78ZM84.32 13.54V15.94H94.04V13.54H84.32ZM61.1 27.94H88.04V56.74H61.1V27.94ZM89.72 27.94H117.56V56.74H89.72V27.94ZM73.52 40.06V45.58H75.98V40.06H73.52ZM101.96 40.06V45.58H104.42V40.06H101.96ZM138.86 16.84V19.3H149.36V48.82L138.26 56.68H121.4V49.6L124.94 47.14L122.12 43.54V33.1H133.4V41.26L135.26 40V31.24H121.88V22.6L126.62 16.84H121.64V1.84H149.3V16.84H138.86ZM161.42 1.84H176.6V56.68H151.1V48.7L161.42 40.72V1.84ZM159.5 4.06V39.64H151.16V4.06H159.5ZM232.04 43.66L236.66 47.8V56.68H219.02L215.48 53.56L210.74 56.92H194.24V51.16L188.66 56.92H181.7V41.68L187.1 37H181.52V25.3H198.92V23.8H182.9V14.92H198.92V13.42H182.72V2.92H198.92V0.759998H218.18V2.92H235.34V13.42H218.18V14.92H235.16V23.8H218.18V25.3H236.54V37H209.84V41.92L214.22 38.92H234.02V42.28L232.04 43.66Z" fill="white"/>
</svg>
